<svg xmlns="http://www.w3.org/2000/svg" viewBox="0 0 512 512"><g id="Capa_2" data-name="Capa 2"><g id="Capa_1-2" data-name="Capa 1"><g id="SCdfJ2.tif"><path d="M0,220V192c1.3-8.5,2.38-17,3.92-25.5C18.26,87.53,82.93,21.21,161.54,5c10.39-2.14,21-3.36,31.46-5h27c1.27.3,2.53.68,3.81.9,11.3,1.94,22.81,3.07,33.88,5.9C385.73,39.59,450,184.64,388.28,301.47c-5.66,10.7-12.55,20.74-19.48,32.09a34.32,34.32,0,0,1,4.24,3.25q62.44,62.34,124.85,124.71c5.79,5.77,11.39,11.54,14.11,19.48v10c-3.12,10.88-10.17,17.83-21,21h-9c-7.68-2.06-13.32-7-18.8-12.53Q399.72,435.74,336,372.2c-1.15-1.15-2.37-2.23-3.4-3.2a3.06,3.06,0,0,0-.85.18c-.69.46-1.38.93-2.05,1.42-48.83,35.58-102.95,48.28-162.49,37.54C87.63,393.78,21.44,329.56,5,250.48,2.89,240.41,1.64,230.16,0,220Zm51-14.44c-.33,85.09,69,154.78,154.5,155.31,85.09.52,155-68.94,155.35-154.39.37-85.23-69-155-154.43-155.3C121.32,50.86,51.36,120.34,51,205.56Z"/></g></g></g></svg>